<svg id="Layer_5" enable-background="new 0 0 64 64" height="512" viewBox="0 0 64 64" width="512" xmlns="http://www.w3.org/2000/svg"><g><path d="m43 45.771c0 1.678-.358 3.295-1.064 4.806l1.812.847c.831-1.779 1.252-3.681 1.252-5.653v-6.771h-2z"/><path d="m43 35h2v2h-2z"/><path d="m21 45.771v-.771h-2v.771c0 4.226 2.021 8.238 5.407 10.734l1.187-1.61c-2.877-2.121-4.594-5.532-4.594-9.124z"/><path d="m27.425 55.987-.852 1.81c.7.329 1.431.595 2.172.79l.508-1.935c-.623-.164-1.238-.387-1.828-.665z"/><path d="m49.765 25.083 7.09-1.934c1.482-.403 2.678-1.443 3.282-2.854l2.62-6.112c.316-.736.326-1.552.029-2.296-.298-.745-.867-1.328-1.602-1.642-.06-.026-.124-.037-.185-.059l.001-4.186h-2l-.001 4.178c-.776.275-1.421.856-1.756 1.641l-2.43 5.668-6.598 1.8-1.219-1.624-.003-.337c.961-1.359 2.007-3.676 2.007-7.326 0-6.678-7.41-8.872-7.725-8.961l-3.356-.039 1.3 1.625c1.052 1.314 3.781 5.202 3.781 7.375 0 1.137-.56 2.936-1.576 5.065-.562 1.175-1.759 1.935-3.052 1.935-.048 0-.093-.012-.141-.014.473-.531.769-1.222.769-1.986 0-1.654-1.346-3-3-3-.348 0-.684.064-1 .178v-4.178c0-1.654-1.346-3-3-3s-3 1.346-3 3v4.178c-.316-.114-.652-.178-1-.178-1.654 0-3 1.346-3 3 0 .764.296 1.455.769 1.986-.048.002-.093.014-.141.014-1.292 0-2.49-.76-3.052-1.935-1.016-2.129-1.576-3.928-1.576-5.065 0-2.169 2.729-6.06 3.781-7.375l1.298-1.625h-3.079l-.275.039c-.315.089-7.725 2.283-7.725 8.961 0 3.644 1.043 5.958 2 7.314v.353l-1.215 1.62-6.597-1.8-2.429-5.667c-.335-.786-.981-1.368-1.757-1.643l-.001-4.177h-2l.001 4.185c-.061.022-.124.032-.183.058-.736.315-1.306.898-1.604 1.643-.297.745-.287 1.56.029 2.296l2.619 6.112c.604 1.411 1.8 2.452 3.281 2.854l7.09 1.934c.635 2.109 2.504 3.687 4.766 3.892v2.126c-1.673.341-3.035 1.525-3.646 3.083l-6.861-1.144c-1.169-.194-2.216.286-2.854 1.118l-3.321-1.107-.633 1.897 3.322 1.107c.026 1.417 1.055 2.662 2.501 2.903l7.492 1.251v2.16l-4.436 1.331c-2.131.64-3.563 2.564-3.563 4.79v7.511c0 1.302.839 2.402 2 2.816v4.184h2v-4.184c1.161-.414 2-1.514 2-2.816v-6.768l2.244-.673c1.316 8.087 8.219 14.346 16.538 14.439l.217.002.222-.001c8.315-.094 15.218-6.353 16.534-14.44l2.244.673v6.768c0 1.302.839 2.402 2 2.816v4.184h2v-4.184c1.161-.414 2-1.514 2-2.816v-7.512c0-2.226-1.432-4.15-3.564-4.79l-4.436-1.33v-2.16l7.494-1.249c1.446-.241 2.475-1.486 2.501-2.903l3.322-1.107-.633-1.897-3.316 1.105c-.632-.832-1.673-1.313-2.861-1.115l-6.86 1.143c-.611-1.558-1.973-2.742-3.646-3.083v-2.126c2.26-.206 4.129-1.784 4.764-3.893zm-41.929 11.903c-.544-.091-.912-.607-.822-1.151.09-.538.602-.907 1.151-.822l6.835 1.14v2.027zm3.165 10.758v8.256c0 .551-.449 1-1 1s-1-.449-1-1v-7.512c0-1.335.859-2.49 2.139-2.874l3.86-1.158v1.314c0 .257.027.508.038.763zm41.86-2.13c1.28.384 2.139 1.539 2.139 2.874v7.512c0 .551-.449 1-1 1s-1-.449-1-1v-8.256l-4.038-1.211c.011-.255.038-.505.038-.762v-1.315zm2.972-10.6c.574-.091 1.063.284 1.153.821.09.544-.278 1.061-.822 1.151l-7.164 1.194v-2.027zm-34.833-4.014v-2h22v2zm11 6c-3.38 0-6.208-1.721-6.859-4h13.718c-.651 2.279-3.479 4-6.859 4zm24.271-17.838 2.811-6.558c.209-.493.804-.742 1.314-.522.244.104.433.298.532.546.101.252.098.517-.009.766l-2.62 6.113c-.362.846-1.08 1.47-1.969 1.712l-6.375 1.739c-.068-.669-.247-1.323-.548-1.924zm-20.271-5.162c.551 0 1 .449 1 1s-.449 1-1 1c-.007 0-.016-.003-.023-.003-.397-.401-.682-.907-.838-1.465.172-.318.495-.532.861-.532zm-8 0c.366 0 .689.214.861.532-.157.559-.441 1.064-.838 1.465-.007 0-.016.003-.023.003-.551 0-1-.449-1-1s.449-1 1-1zm-22.298 5.506-2.62-6.113c-.107-.249-.11-.513-.009-.765.099-.248.288-.442.534-.547.5-.215 1.101.029 1.313.525l2.81 6.556 6.863 1.872c-.301.601-.481 1.255-.548 1.923l-6.375-1.738c-.888-.242-1.606-.866-1.968-1.713zm10.298 3.994c0-.752.249-1.498.7-2.1l2.3-3.066v-1.689l-.208-.27c-.817-1.061-1.792-3.028-1.792-6.375 0-3.473 2.725-5.425 4.587-6.354-1.193 1.824-2.587 4.378-2.587 6.354 0 1.47.596 3.464 1.771 5.926.892 1.867 2.798 3.074 4.857 3.074 2.962 0 5.372-2.41 5.372-5.372v-5.628c0-.551.449-1 1-1s1 .449 1 1v5.628c0 2.962 2.41 5.372 5.372 5.372 2.059 0 3.965-1.207 4.856-3.074 1.176-2.462 1.772-4.456 1.772-5.926 0-1.969-1.384-4.512-2.575-6.335 1.859.942 4.575 2.906 4.575 6.335 0 3.357-.98 5.327-1.802 6.388l-.213.275.019 1.675 2.296 3.061c.452.603.7 1.349.7 2.101 0 1.93-1.57 3.5-3.5 3.5h-25c-1.93 0-3.5-1.57-3.5-3.5zm1 22.271v-9.771c0-1.654 1.346-3 3-3h3.103c.58 3.133 3.829 5.602 7.897 5.954v21.995c-7.788-.515-14-7.148-14-15.178zm30-9.771v9.771c0 8.031-6.214 14.666-14 15.178v-21.995c4.068-.352 7.317-2.821 7.897-5.954h3.103c1.654 0 3 1.346 3 3z"/></g></svg>